<svg xmlns="http://www.w3.org/2000/svg" xmlns:xlink="http://www.w3.org/1999/xlink" width="300" zoomAndPan="magnify" viewBox="0 0 224.87999 225" height="300" preserveAspectRatio="xMidYMid meet" version="1.0"><defs><g/><clipPath id="7c5f40c65a"><path d="M 0 21 L 214 21 L 214 206.0625 L 0 206.0625 Z M 0 21 " clip-rule="nonzero"/></clipPath><clipPath id="a1274882b3"><path d="M 8 47 L 224.761719 47 L 224.761719 205 L 8 205 Z M 8 47 " clip-rule="nonzero"/></clipPath></defs><path fill="#ff2273" d="M 190.476562 62.480469 L 190.324219 62.128906 L 189.675781 62.015625 C 187.089844 49.480469 176.929688 39.449219 163.785156 36.183594 C 160.996094 32.105469 157.46875 27.0625 156.28125 25.902344 C 155.199219 24.84375 152.53125 24.191406 149.074219 24.105469 C 148.835938 23.808594 148.625 23.558594 148.480469 23.417969 C 147.050781 22.023438 140.0625 21.484375 133.542969 24.148438 C 127.027344 26.808594 125.195312 29.339844 124.710938 31.507812 C 124.640625 31.828125 124.601562 32.324219 124.589844 32.914062 C 123.222656 34.351562 122.367188 35.875 122.003906 37.515625 C 121.519531 39.6875 122.070312 46.613281 122.460938 50.734375 L 56.691406 70.640625 L 56.257812 70.863281 C 54.066406 69.75 51.742188 68.835938 49.3125 68.144531 C 46.789062 64.042969 43.738281 59.222656 42.660156 58.058594 C 41.632812 56.949219 38.949219 56.167969 35.554688 55.917969 C 35.328125 55.605469 35.132812 55.347656 34.992188 55.199219 C 33.636719 53.734375 26.679688 52.859375 20.039062 55.199219 C 13.394531 57.539062 11.441406 59.980469 10.855469 62.117188 C 10.769531 62.4375 10.707031 62.929688 10.667969 63.515625 C 9.230469 64.886719 8.300781 66.367188 7.855469 67.984375 C 7.261719 70.164062 7.484375 77.28125 7.675781 81.390625 C 3.816406 86.476562 1.386719 92.566406 0.9375 99.160156 C 0.9375 99.160156 5.378906 172.230469 6.832031 183.203125 C 8.558594 196.25 17.113281 204.574219 30.3125 205.335938 C 31.003906 205.378906 39.015625 205.289062 41.882812 204.207031 C 50.109375 201.105469 55.726562 193.726562 58.054688 183.039062 C 61.894531 165.390625 70.136719 131.160156 72.707031 128.773438 C 75.210938 126.453125 91.8125 121.074219 102.792969 117.570312 L 106.78125 116.253906 C 111.238281 114.824219 115.695312 113.3125 119.683594 111.976562 C 125.960938 109.875 131.386719 108.050781 133.289062 107.667969 C 134.257812 107.476562 135.464844 107.230469 136.769531 107.230469 C 140.132812 107.230469 142.910156 108.925781 145.257812 112.414062 C 153.425781 124.570312 173.816406 152.835938 186.675781 152.835938 C 186.855469 152.835938 187.035156 152.832031 187.210938 152.820312 C 203.707031 151.816406 212.789062 143.773438 212.789062 130.171875 C 212.792969 114.941406 191.386719 64.617188 190.476562 62.480469 Z M 190.476562 62.480469 " fill-opacity="1" fill-rule="nonzero"/><g clip-path="url(#7c5f40c65a)"><path fill="#000000" d="M 30.804688 206.0625 C 30.542969 206.0625 30.359375 206.058594 30.273438 206.054688 C 16.929688 205.28125 7.898438 196.777344 6.117188 183.296875 C 4.679688 172.425781 0.261719 99.933594 0.21875 99.203125 C 0.660156 92.667969 2.984375 86.464844 6.945312 81.164062 C 6.71875 76.183594 6.582031 69.921875 7.164062 67.796875 C 7.617188 66.140625 8.558594 64.589844 9.972656 63.191406 C 10.015625 62.644531 10.078125 62.230469 10.160156 61.929688 C 10.992188 58.898438 14.054688 56.546875 19.800781 54.519531 C 23.285156 53.292969 26.488281 53.035156 28.5625 53.035156 C 31.894531 53.035156 34.5625 53.675781 35.523438 54.707031 C 35.632812 54.828125 35.777344 55.007812 35.941406 55.226562 C 39.449219 55.523438 42.082031 56.375 43.191406 57.570312 C 44.085938 58.539062 46.304688 61.886719 49.78125 67.53125 C 52.015625 68.183594 54.1875 69.03125 56.257812 70.058594 L 56.363281 70 L 121.691406 50.214844 C 121.242188 45.375 120.839844 39.441406 121.304688 37.359375 C 121.679688 35.65625 122.523438 34.101562 123.878906 32.621094 C 123.898438 32.074219 123.941406 31.660156 124.007812 31.355469 C 124.691406 28.285156 127.636719 25.785156 133.273438 23.480469 C 136.335938 22.230469 139.832031 21.539062 143.121094 21.539062 C 145.921875 21.539062 148.113281 22.050781 148.988281 22.902344 C 149.101562 23.015625 149.253906 23.1875 149.425781 23.398438 C 151.636719 23.476562 155.214844 23.851562 156.785156 25.390625 C 157.757812 26.339844 160.261719 29.757812 164.226562 35.554688 C 177.359375 38.914062 187.519531 49.003906 190.277344 61.390625 L 190.835938 61.492188 L 191.136719 62.199219 C 192.050781 64.339844 213.511719 114.800781 213.511719 130.171875 C 213.511719 144.207031 204.1875 152.507812 187.257812 153.535156 C 187.066406 153.546875 186.875 153.554688 186.679688 153.554688 C 173.464844 153.554688 152.894531 125.0625 144.664062 112.8125 C 142.457031 109.539062 139.878906 107.949219 136.769531 107.949219 C 135.554688 107.949219 134.394531 108.179688 133.46875 108.367188 C 131.652344 108.730469 126.5625 110.433594 120.671875 112.402344 L 117.347656 113.515625 C 114.054688 114.621094 110.53125 115.804688 107 116.9375 L 103.023438 118.253906 C 94.851562 120.859375 75.730469 126.953125 73.199219 129.300781 C 71.015625 131.328125 63.273438 162.453125 58.761719 183.191406 C 56.371094 194.179688 50.621094 201.679688 42.140625 204.882812 C 39.035156 206.050781 30.886719 206.0625 30.804688 206.0625 Z M 28.5625 54.472656 C 26.601562 54.472656 23.570312 54.714844 20.28125 55.875 C 13.367188 58.3125 11.988281 60.714844 11.550781 62.308594 C 11.503906 62.480469 11.4375 62.839844 11.386719 63.5625 L 11.367188 63.84375 L 11.167969 64.035156 C 9.816406 65.324219 8.964844 66.675781 8.554688 68.175781 C 8.136719 69.699219 8.082031 74.503906 8.398438 81.355469 L 8.40625 81.617188 L 8.25 81.824219 C 4.363281 86.945312 2.082031 92.957031 1.65625 99.210938 C 1.699219 99.847656 6.117188 172.289062 7.546875 183.109375 C 9.257812 196.042969 17.570312 203.882812 30.355469 204.621094 C 30.425781 204.625 30.582031 204.625 30.804688 204.625 C 32.863281 204.625 39.269531 204.429688 41.628906 203.535156 C 49.632812 200.519531 55.070312 193.378906 57.351562 182.886719 C 59.707031 172.074219 69.125 131.121094 72.21875 128.25 C 74.648438 125.996094 88.246094 121.457031 102.578125 116.886719 L 106.554688 115.570312 C 110.082031 114.441406 113.601562 113.257812 116.890625 112.152344 L 120.214844 111.039062 C 126.152344 109.054688 131.277344 107.339844 133.144531 106.964844 C 134.175781 106.757812 135.410156 106.511719 136.769531 106.511719 C 140.390625 106.511719 143.363281 108.3125 145.851562 112.011719 C 153.960938 124.070312 174.160156 152.117188 186.679688 152.117188 C 186.84375 152.117188 187.003906 152.109375 187.164062 152.101562 C 203.226562 151.125 212.070312 143.335938 212.070312 130.171875 C 212.070312 115.105469 190.761719 64.992188 189.816406 62.769531 L 189.070312 62.636719 L 188.972656 62.160156 C 186.460938 50.007812 176.507812 40.085938 163.609375 36.882812 L 163.34375 36.816406 L 163.1875 36.589844 C 159.300781 30.902344 156.667969 27.289062 155.773438 26.417969 C 155.050781 25.707031 152.910156 24.917969 149.054688 24.824219 L 148.71875 24.816406 L 148.511719 24.554688 C 148.296875 24.285156 148.109375 24.058594 147.976562 23.929688 C 147.507812 23.472656 145.785156 22.980469 143.117188 22.980469 C 141.320312 22.980469 137.722656 23.21875 133.816406 24.8125 C 127.035156 27.582031 125.769531 30.050781 125.410156 31.664062 C 125.371094 31.839844 125.324219 32.203125 125.308594 32.925781 L 125.300781 33.207031 L 125.109375 33.410156 C 123.828125 34.757812 123.042969 36.148438 122.703125 37.671875 C 122.363281 39.195312 122.539062 43.933594 123.175781 50.667969 L 123.230469 51.25 L 56.902344 71.328125 L 56.261719 71.671875 L 55.933594 71.503906 C 53.769531 70.402344 51.472656 69.507812 49.117188 68.835938 L 48.847656 68.757812 L 48.699219 68.519531 C 45.285156 62.976562 42.953125 59.433594 42.132812 58.550781 C 41.261719 57.605469 38.71875 56.871094 35.503906 56.632812 L 35.171875 56.609375 L 34.972656 56.339844 C 34.769531 56.058594 34.589844 55.820312 34.464844 55.683594 C 33.917969 55.097656 31.664062 54.472656 28.5625 54.472656 Z M 28.5625 54.472656 " fill-opacity="1" fill-rule="nonzero"/></g><path fill="#000000" d="M 145.257812 112.414062 C 146.410156 114.125 147.808594 116.164062 149.386719 118.390625 C 149.75 118.902344 150.484375 117.761719 150.511719 117.453125 C 150.621094 116.242188 149.578125 115.15625 149.320312 114.023438 C 148.980469 112.535156 150.261719 111.433594 151.734375 112.121094 C 153.855469 113.105469 155.074219 115.371094 157.070312 116.53125 C 159.171875 117.753906 161.34375 117.410156 163.292969 116.023438 C 166.019531 114.074219 167.101562 110.980469 166.285156 107.726562 C 164.871094 102.101562 160.890625 98.167969 155.757812 95.667969 C 144.828125 90.339844 131.453125 90.335938 123.9375 101.042969 C 121.496094 104.519531 119.691406 108.382812 118.351562 112.421875 C 118.792969 112.273438 119.25 112.117188 119.683594 111.972656 C 125.964844 109.875 131.390625 108.046875 133.289062 107.667969 C 134.261719 107.472656 135.46875 107.230469 136.769531 107.230469 C 140.132812 107.230469 142.910156 108.921875 145.257812 112.414062 Z M 145.257812 112.414062 " fill-opacity="1" fill-rule="nonzero"/><path fill="#000000" d="M 200.394531 142.910156 C 194.828125 139.40625 179.292969 133.300781 180.09375 145.339844 C 180.195312 146.875 176.511719 145.175781 175.902344 144.972656 C 175.007812 144.675781 174.113281 144.386719 173.1875 144.203125 C 172.90625 144.148438 171.125 144.226562 171.035156 144.144531 C 176.609375 149.277344 182.113281 152.835938 186.679688 152.835938 C 186.859375 152.835938 187.035156 152.828125 187.210938 152.816406 C 194.839844 152.355469 200.863281 150.367188 205.15625 147.039062 C 203.714844 145.445312 202.140625 144.007812 200.394531 142.910156 Z M 200.394531 142.910156 " fill-opacity="1" fill-rule="nonzero"/><path fill="#000000" d="M 201.210938 151.796875 L 189.476562 153.324219 L 195.628906 141.917969 Z M 201.210938 151.796875 " fill-opacity="1" fill-rule="nonzero"/><path fill="#000000" d="M 117.816406 52.140625 C 122.3125 55.316406 127.757812 57.257812 133.171875 58.007812 C 142.726562 59.332031 150.6875 57 157.371094 49.925781 C 161 46.085938 164.652344 41.992188 166.617188 37.019531 C 165.6875 36.707031 164.746094 36.421875 163.785156 36.183594 C 160.996094 32.105469 157.46875 27.0625 156.28125 25.902344 C 155.199219 24.84375 152.53125 24.191406 149.074219 24.105469 C 148.835938 23.808594 148.625 23.558594 148.480469 23.417969 C 147.050781 22.023438 140.0625 21.484375 133.542969 24.148438 C 127.027344 26.808594 125.195312 29.339844 124.710938 31.507812 C 124.640625 31.828125 124.601562 32.324219 124.589844 32.914062 C 123.222656 34.351562 122.367188 35.875 122.003906 37.515625 C 121.519531 39.691406 122.070312 46.613281 122.460938 50.734375 Z M 117.816406 52.140625 " fill-opacity="1" fill-rule="nonzero"/><path fill="#000000" d="M 45.707031 200.679688 C 39.75 193.988281 33.257812 186.285156 25.582031 181.515625 C 23.542969 180.25 21.398438 179.117188 19.421875 177.753906 C 17.253906 176.253906 15.59375 175.796875 14.40625 178.503906 C 13.902344 179.652344 12.941406 182.816406 11.25 182.816406 C 9.644531 182.816406 9.339844 179.28125 8.71875 178.402344 C 7.832031 177.148438 7.050781 178.195312 6.457031 179.730469 C 6.597656 181.195312 6.722656 182.382812 6.832031 183.203125 C 8.558594 196.25 17.113281 204.574219 30.3125 205.339844 C 31.003906 205.378906 39.246094 205.238281 42.195312 204.070312 C 43.765625 203.445312 45.238281 202.664062 46.613281 201.738281 C 46.308594 201.386719 46.011719 201.027344 45.707031 200.679688 Z M 45.707031 200.679688 " fill-opacity="1" fill-rule="nonzero"/><path fill="#000000" d="M 37.824219 205.710938 C 39.695312 205.429688 46.613281 204.199219 46.613281 204.199219 L 39.261719 199.167969 Z M 37.824219 205.710938 " fill-opacity="1" fill-rule="nonzero"/><path fill="#000000" d="M 1.40625 106.796875 C 1.621094 107.332031 1.90625 107.792969 2.304688 108.125 C 4.09375 109.628906 4.859375 106.640625 5.5625 105.640625 C 5.816406 105.277344 6.355469 105.132812 6.695312 105.496094 C 9.261719 108.25 7.742188 113.972656 12.160156 115.125 C 18.351562 116.742188 22.417969 111.90625 24.277344 106.621094 C 27.167969 98.40625 28.601562 89.820312 32.59375 81.980469 C 36.15625 74.972656 41.023438 69.042969 46.523438 63.679688 C 44.863281 61.070312 43.355469 58.808594 42.660156 58.058594 C 41.632812 56.949219 38.949219 56.167969 35.554688 55.917969 C 35.328125 55.605469 35.132812 55.347656 34.992188 55.199219 C 33.636719 53.734375 26.679688 52.859375 20.039062 55.199219 C 13.394531 57.539062 11.441406 59.980469 10.855469 62.117188 C 10.769531 62.4375 10.707031 62.929688 10.667969 63.515625 C 9.230469 64.886719 8.300781 66.367188 7.855469 67.984375 C 7.261719 70.164062 7.484375 77.28125 7.675781 81.390625 C 3.816406 86.476562 1.386719 92.566406 0.9375 99.160156 C 0.9375 99.160156 1.113281 102.066406 1.40625 106.796875 Z M 1.40625 106.796875 " fill-opacity="1" fill-rule="nonzero"/><path fill="#000000" d="M 135.804688 40.632812 C 135.804688 40.632812 134.742188 31.054688 135.230469 28.859375 C 135.71875 26.65625 137.578125 24.089844 144.199219 21.386719 C 150.816406 18.683594 157.914062 19.226562 159.363281 20.644531 C 160.8125 22.058594 167.453125 32.046875 167.453125 32.046875 Z M 135.804688 40.632812 " fill-opacity="1" fill-rule="nonzero"/><path fill="#ffd33b" d="M 133.988281 51.503906 C 133.988281 51.503906 132.503906 38.171875 133.1875 35.113281 C 133.863281 32.050781 136.453125 28.472656 145.667969 24.710938 C 154.882812 20.949219 164.761719 21.707031 166.777344 23.679688 C 168.796875 25.652344 178.042969 39.550781 178.042969 39.550781 Z M 133.988281 51.503906 " fill-opacity="1" fill-rule="nonzero"/><path fill="#000000" d="M 133.367188 52.417969 L 133.273438 51.582031 C 133.210938 51.035156 131.785156 38.097656 132.480469 34.957031 C 133.421875 30.726562 137.523438 27.261719 145.394531 24.046875 C 151.191406 21.679688 156.53125 21.324219 159.199219 21.324219 C 163.082031 21.324219 166.101562 22.015625 167.28125 23.167969 C 169.328125 25.167969 178.265625 38.585938 178.640625 39.152344 L 179.195312 39.984375 Z M 159.199219 22.761719 C 156.636719 22.761719 151.511719 23.101562 145.941406 25.378906 C 136.222656 29.34375 134.410156 32.921875 133.886719 35.265625 C 133.386719 37.519531 134.175781 46.414062 134.613281 50.589844 L 176.890625 39.121094 C 173.566406 34.148438 167.742188 25.628906 166.273438 24.195312 C 165.542969 23.480469 163.074219 22.761719 159.199219 22.761719 Z M 159.199219 22.761719 " fill-opacity="1" fill-rule="nonzero"/><path fill="#000000" d="M 19.644531 71.722656 C 19.644531 71.722656 19.046875 62.105469 19.644531 59.933594 C 20.238281 57.761719 22.222656 55.285156 28.96875 52.90625 C 35.710938 50.53125 42.769531 51.421875 44.148438 52.90625 C 45.527344 54.394531 51.675781 64.691406 51.675781 64.691406 Z M 19.644531 71.722656 " fill-opacity="1" fill-rule="nonzero"/><path fill="#ffd33b" d="M 17.296875 82.492188 C 17.296875 82.492188 16.464844 69.105469 17.296875 66.082031 C 18.125 63.054688 20.886719 59.609375 30.269531 56.300781 C 39.660156 52.996094 49.488281 54.234375 51.402344 56.300781 C 53.324219 58.371094 61.882812 72.707031 61.882812 72.707031 Z M 17.296875 82.492188 " fill-opacity="1" fill-rule="nonzero"/><path fill="#000000" d="M 16.628906 83.375 L 16.578125 82.535156 C 16.542969 81.984375 15.75 68.996094 16.601562 65.890625 C 17.746094 61.710938 22.011719 58.449219 30.035156 55.625 C 34.917969 53.902344 39.410156 53.539062 42.316406 53.539062 C 46.878906 53.539062 50.652344 54.433594 51.933594 55.8125 C 53.882812 57.914062 62.152344 71.75 62.503906 72.335938 L 63.011719 73.195312 Z M 42.316406 54.980469 C 39.523438 54.980469 35.207031 55.324219 30.511719 56.980469 C 20.613281 60.46875 18.625 63.953125 17.988281 66.269531 C 17.382812 68.496094 17.730469 77.417969 17.964844 81.609375 L 60.75 72.21875 C 57.675781 67.089844 52.273438 58.296875 50.875 56.789062 C 50.042969 55.890625 46.835938 54.980469 42.316406 54.980469 Z M 42.316406 54.980469 " fill-opacity="1" fill-rule="nonzero"/><path fill="#ffd33b" d="M 9.488281 98.378906 C 9.488281 98.378906 14.785156 171.46875 16.273438 182.714844 C 17.761719 193.964844 24.773438 203.304688 39.441406 204.152344 C 54.105469 205 63.671875 196.722656 66.859375 182.078125 C 70.046875 167.433594 78.972656 129.65625 81.949219 126.898438 C 84.925781 124.140625 104.902344 117.984375 116.804688 114.164062 C 128.710938 110.34375 140.609375 106.097656 143.796875 105.460938 C 146.988281 104.824219 152.140625 103.835938 156.6875 110.589844 C 161.226562 117.347656 184.820312 152.132812 198.636719 151.292969 C 212.449219 150.453125 223.929688 144.511719 223.929688 129.019531 C 223.929688 113.527344 201.332031 60.585938 201.332031 60.585938 L 134.390625 48.6875 L 66.503906 69.21875 Z M 9.488281 98.378906 " fill-opacity="1" fill-rule="nonzero"/><g clip-path="url(#a1274882b3)"><path fill="#000000" d="M 41.46875 204.605469 C 40.789062 204.605469 40.097656 204.746094 39.398438 204.707031 C 26 203.933594 17.3125 195.972656 15.558594 182.730469 C 14.085938 171.589844 8.824219 99.121094 8.769531 98.390625 L 66.179688 68.554688 L 134.351562 47.9375 L 201.839844 59.9375 L 201.996094 60.296875 C 202.921875 62.464844 224.648438 113.558594 224.648438 129.019531 C 224.648438 142.828125 215.425781 150.992188 198.679688 152.011719 C 198.503906 152.023438 198.320312 152.027344 198.140625 152.027344 C 185.082031 152.027344 164.382812 123.332031 156.089844 110.992188 C 153.707031 107.445312 150.886719 105.726562 147.472656 105.726562 C 146.148438 105.726562 144.921875 105.96875 143.941406 106.167969 C 142.007812 106.550781 136.503906 108.390625 130.128906 110.527344 C 126.078125 111.878906 121.554688 113.394531 117.027344 114.847656 L 112.980469 116.140625 C 101.832031 119.695312 84.980469 125.066406 82.4375 127.425781 C 79.828125 129.84375 71.460938 164.152344 67.5625 182.070312 C 64.375 196.707031 55.109375 204.605469 41.46875 204.605469 Z M 10.242188 98.800781 C 10.703125 105.128906 15.582031 171.996094 16.988281 182.621094 C 18.640625 195.117188 26.839844 202.703125 39.484375 203.433594 C 53.492188 204.25 62.976562 196.535156 66.15625 181.929688 C 66.269531 181.410156 77.605469 129.945312 81.460938 126.375 C 84.027344 123.992188 97.058594 119.710938 112.542969 114.773438 L 116.585938 113.480469 C 121.109375 112.027344 125.628906 110.515625 129.667969 109.164062 C 136.355469 106.929688 141.636719 105.160156 143.660156 104.757812 C 144.648438 104.558594 146.003906 104.289062 147.472656 104.289062 C 151.402344 104.289062 154.613281 106.21875 157.285156 110.191406 C 165.449219 122.339844 185.773438 150.59375 198.140625 150.59375 C 198.292969 150.59375 198.441406 150.585938 198.59375 150.578125 C 209.824219 149.898438 223.210938 145.601562 223.210938 129.019531 C 223.210938 114.511719 202.796875 65.898438 200.820312 61.226562 L 134.4375 49.425781 L 66.714844 69.90625 Z M 10.242188 98.800781 " fill-opacity="1" fill-rule="nonzero"/></g><path fill="#ffd33b" d="M 201.839844 66.214844 C 201.839844 84.863281 185.5625 99.980469 165.472656 99.980469 C 145.390625 99.980469 129.113281 84.863281 129.113281 66.214844 C 129.113281 47.570312 145.390625 32.453125 165.472656 32.453125 C 185.5625 32.453125 201.839844 47.570312 201.839844 66.214844 Z M 201.839844 66.214844 " fill-opacity="1" fill-rule="nonzero"/><path fill="#000000" d="M 165.476562 100.699219 C 145.027344 100.699219 128.394531 85.230469 128.394531 66.214844 C 128.394531 47.203125 145.027344 31.734375 165.476562 31.734375 C 185.925781 31.734375 202.5625 47.203125 202.5625 66.214844 C 202.5625 85.230469 185.925781 100.699219 165.476562 100.699219 Z M 165.476562 33.171875 C 145.824219 33.171875 129.832031 47.996094 129.832031 66.214844 C 129.832031 84.4375 145.824219 99.257812 165.476562 99.257812 C 185.128906 99.257812 201.121094 84.4375 201.121094 66.214844 C 201.121094 47.996094 185.128906 33.171875 165.476562 33.171875 Z M 165.476562 33.171875 " fill-opacity="1" fill-rule="nonzero"/><path fill="#ffd33b" d="M 85.542969 99.804688 C 85.542969 119.304688 68.519531 135.109375 47.511719 135.109375 C 26.511719 135.109375 9.488281 119.304688 9.488281 99.804688 C 9.488281 80.304688 26.511719 64.5 47.511719 64.5 C 68.519531 64.5 85.542969 80.304688 85.542969 99.804688 Z M 85.542969 99.804688 " fill-opacity="1" fill-rule="nonzero"/><path fill="#000000" d="M 47.515625 135.828125 C 26.148438 135.828125 8.769531 119.667969 8.769531 99.804688 C 8.769531 79.941406 26.152344 63.78125 47.515625 63.78125 C 68.882812 63.78125 86.261719 79.941406 86.261719 99.804688 C 86.261719 119.667969 68.878906 135.828125 47.515625 135.828125 Z M 47.515625 65.21875 C 26.945312 65.21875 10.210938 80.734375 10.210938 99.804688 C 10.210938 118.875 26.945312 134.390625 47.515625 134.390625 C 68.085938 134.390625 84.824219 118.875 84.824219 99.804688 C 84.820312 80.734375 68.085938 65.21875 47.515625 65.21875 Z M 47.515625 65.21875 " fill-opacity="1" fill-rule="nonzero"/><path fill="#ffffff" d="M 49.203125 126.167969 L 49.199219 126.167969 C 47.628906 126.167969 46.234375 125.207031 45.738281 123.714844 L 41.324219 111.339844 L 26.125 115.714844 C 24.226562 116.253906 22.148438 115.109375 21.605469 113.222656 L 17.824219 100.09375 C 17.554688 99.160156 17.667969 98.175781 18.140625 97.324219 C 18.613281 96.46875 19.386719 95.851562 20.324219 95.585938 L 34.285156 91.578125 L 30.035156 79.632812 C 29.394531 77.710938 30.429688 75.640625 32.339844 75.007812 L 45.320312 70.6875 C 47.203125 70.066406 49.320312 71.132812 49.941406 72.996094 L 54.488281 85.777344 L 71.039062 81.023438 C 72.929688 80.476562 75.015625 81.636719 75.558594 83.519531 L 79.335938 96.652344 C 79.605469 97.585938 79.496094 98.570312 79.023438 99.425781 C 78.550781 100.277344 77.773438 100.894531 76.835938 101.164062 L 61.53125 105.558594 L 65.644531 117.121094 C 65.957031 118.058594 65.886719 119.046875 65.449219 119.917969 C 65.011719 120.789062 64.261719 121.4375 63.335938 121.746094 L 50.355469 126.019531 C 49.980469 126.148438 49.59375 126.167969 49.203125 126.167969 Z M 42.226562 109.605469 L 47.097656 123.292969 C 47.40625 124.210938 48.25 124.824219 49.199219 124.824219 L 49.203125 124.824219 C 49.4375 124.824219 49.671875 124.78125 49.898438 124.703125 L 62.882812 120.382812 C 63.445312 120.199219 63.898438 119.804688 64.164062 119.277344 C 64.429688 118.75 64.46875 118.148438 64.285156 117.589844 L 59.660156 104.597656 L 76.4375 99.78125 C 77.007812 99.617188 77.476562 99.242188 77.765625 98.726562 C 78.050781 98.210938 78.117188 97.613281 77.953125 97.046875 L 74.175781 83.917969 C 73.847656 82.777344 72.59375 82.078125 71.4375 82.40625 L 53.585938 87.53125 L 48.578125 73.464844 C 48.199219 72.316406 46.917969 71.667969 45.777344 72.050781 L 32.796875 76.367188 C 31.640625 76.753906 31.011719 78.007812 31.394531 79.164062 L 36.15625 92.535156 L 20.726562 96.964844 C 20.15625 97.128906 19.6875 97.503906 19.402344 98.019531 C 19.113281 98.535156 19.046875 99.132812 19.210938 99.699219 L 22.988281 112.832031 C 23.316406 113.96875 24.574219 114.671875 25.726562 114.34375 Z M 42.226562 109.605469 " fill-opacity="1" fill-rule="nonzero"/><path fill="#ffffff" d="M 166.476562 91.121094 C 164.902344 91.121094 163.507812 90.117188 163.011719 88.625 L 158.601562 76.230469 L 143.398438 80.59375 C 141.5 81.140625 139.421875 79.980469 138.878906 78.097656 L 135.097656 64.96875 C 134.546875 63.035156 135.667969 61.011719 137.601562 60.457031 L 151.558594 56.449219 L 147.308594 44.503906 C 146.671875 42.578125 147.707031 40.511719 149.617188 39.875 L 162.597656 35.558594 C 164.484375 34.933594 166.597656 36.003906 167.214844 37.867188 L 171.761719 50.644531 L 188.316406 45.894531 C 190.210938 45.351562 192.289062 46.507812 192.832031 48.390625 L 196.613281 61.519531 C 197.171875 63.453125 196.046875 65.476562 194.113281 66.03125 L 178.804688 70.429688 L 182.921875 81.992188 C 183.5625 83.914062 182.523438 85.980469 180.617188 86.617188 L 167.636719 90.933594 C 167.257812 91.054688 166.867188 91.121094 166.476562 91.121094 Z M 159.503906 74.472656 L 164.375 88.15625 C 164.757812 89.304688 166.035156 89.945312 167.175781 89.566406 L 180.15625 85.25 C 181.316406 84.867188 181.945312 83.613281 181.558594 82.457031 L 176.933594 69.46875 L 193.714844 64.652344 C 194.886719 64.316406 195.566406 63.089844 195.230469 61.917969 L 191.449219 48.789062 C 191.121094 47.644531 189.867188 46.945312 188.710938 47.273438 L 170.859375 52.402344 L 165.855469 38.335938 C 165.472656 37.191406 164.199219 36.539062 163.050781 36.921875 L 150.070312 41.238281 C 148.917969 41.625 148.285156 42.878906 148.671875 44.035156 L 153.429688 57.40625 L 138 61.835938 C 136.828125 62.171875 136.148438 63.398438 136.484375 64.570312 L 140.265625 77.703125 C 140.59375 78.839844 141.851562 79.542969 143.003906 79.214844 Z M 159.503906 74.472656 " fill-opacity="1" fill-rule="nonzero"/><path fill="#000000" d="M 155.761719 67.855469 C 155.761719 68.332031 155.714844 68.804688 155.621094 69.273438 C 155.527344 69.742188 155.390625 70.195312 155.207031 70.636719 C 155.023438 71.078125 154.800781 71.496094 154.535156 71.894531 C 154.269531 72.289062 153.96875 72.65625 153.628906 72.992188 C 153.292969 73.332031 152.925781 73.632812 152.527344 73.898438 C 152.128906 74.164062 151.710938 74.386719 151.269531 74.570312 C 150.828125 74.753906 150.371094 74.890625 149.902344 74.984375 C 149.433594 75.078125 148.960938 75.125 148.484375 75.125 C 148.003906 75.125 147.53125 75.078125 147.0625 74.984375 C 146.59375 74.890625 146.140625 74.753906 145.695312 74.570312 C 145.253906 74.386719 144.835938 74.164062 144.4375 73.898438 C 144.042969 73.632812 143.671875 73.332031 143.335938 72.992188 C 142.996094 72.65625 142.695312 72.289062 142.429688 71.894531 C 142.164062 71.496094 141.941406 71.078125 141.757812 70.636719 C 141.574219 70.195312 141.4375 69.742188 141.34375 69.273438 C 141.25 68.804688 141.203125 68.332031 141.203125 67.855469 C 141.203125 67.378906 141.25 66.90625 141.34375 66.4375 C 141.4375 65.96875 141.574219 65.511719 141.757812 65.074219 C 141.941406 64.632812 142.164062 64.210938 142.429688 63.816406 C 142.695312 63.417969 142.996094 63.050781 143.335938 62.714844 C 143.671875 62.378906 144.042969 62.074219 144.4375 61.8125 C 144.835938 61.546875 145.253906 61.320312 145.695312 61.140625 C 146.140625 60.957031 146.59375 60.816406 147.0625 60.726562 C 147.53125 60.632812 148.003906 60.585938 148.484375 60.585938 C 148.960938 60.585938 149.433594 60.632812 149.902344 60.726562 C 150.371094 60.816406 150.828125 60.957031 151.269531 61.140625 C 151.710938 61.320312 152.128906 61.546875 152.527344 61.8125 C 152.925781 62.074219 153.292969 62.378906 153.628906 62.714844 C 153.96875 63.050781 154.269531 63.417969 154.535156 63.816406 C 154.800781 64.210938 155.023438 64.632812 155.207031 65.074219 C 155.390625 65.511719 155.527344 65.96875 155.621094 66.4375 C 155.714844 66.90625 155.761719 67.378906 155.761719 67.855469 Z M 155.761719 67.855469 " fill-opacity="1" fill-rule="nonzero"/><path fill="#000000" d="M 148.480469 75.84375 C 144.070312 75.84375 140.484375 72.257812 140.484375 67.855469 C 140.484375 63.449219 144.070312 59.867188 148.480469 59.867188 C 152.890625 59.867188 156.480469 63.449219 156.480469 67.855469 C 156.480469 72.257812 152.890625 75.84375 148.480469 75.84375 Z M 148.480469 61.304688 C 144.863281 61.304688 141.921875 64.242188 141.921875 67.855469 C 141.921875 71.464844 144.867188 74.40625 148.480469 74.40625 C 152.101562 74.40625 155.042969 71.464844 155.042969 67.855469 C 155.042969 64.242188 152.101562 61.304688 148.480469 61.304688 Z M 148.480469 61.304688 " fill-opacity="1" fill-rule="nonzero"/><path fill="#000000" d="M 167.410156 47.820312 C 167.410156 48.292969 167.363281 48.761719 167.269531 49.222656 C 167.179688 49.6875 167.042969 50.136719 166.859375 50.574219 C 166.679688 51.007812 166.457031 51.421875 166.195312 51.816406 C 165.933594 52.207031 165.632812 52.570312 165.300781 52.902344 C 164.964844 53.238281 164.601562 53.535156 164.210938 53.796875 C 163.816406 54.058594 163.402344 54.28125 162.964844 54.460938 C 162.527344 54.644531 162.078125 54.777344 161.613281 54.871094 C 161.152344 54.964844 160.683594 55.007812 160.210938 55.007812 C 159.738281 55.007812 159.269531 54.964844 158.808594 54.871094 C 158.34375 54.777344 157.894531 54.644531 157.457031 54.460938 C 157.019531 54.28125 156.605469 54.058594 156.210938 53.796875 C 155.820312 53.535156 155.457031 53.238281 155.121094 52.902344 C 154.789062 52.570312 154.488281 52.207031 154.226562 51.816406 C 153.964844 51.421875 153.742188 51.007812 153.5625 50.574219 C 153.378906 50.136719 153.242188 49.6875 153.152344 49.222656 C 153.058594 48.761719 153.011719 48.292969 153.011719 47.820312 C 153.011719 47.351562 153.058594 46.882812 153.152344 46.421875 C 153.242188 45.957031 153.378906 45.507812 153.5625 45.070312 C 153.742188 44.636719 153.964844 44.222656 154.226562 43.828125 C 154.488281 43.4375 154.789062 43.074219 155.121094 42.738281 C 155.457031 42.40625 155.820312 42.109375 156.210938 41.847656 C 156.605469 41.585938 157.019531 41.363281 157.457031 41.183594 C 157.894531 41 158.34375 40.863281 158.808594 40.773438 C 159.269531 40.679688 159.738281 40.636719 160.210938 40.636719 C 160.683594 40.636719 161.152344 40.679688 161.613281 40.773438 C 162.078125 40.863281 162.527344 41 162.964844 41.183594 C 163.402344 41.363281 163.816406 41.585938 164.210938 41.847656 C 164.601562 42.109375 164.964844 42.40625 165.300781 42.738281 C 165.632812 43.074219 165.933594 43.4375 166.195312 43.828125 C 166.457031 44.222656 166.679688 44.636719 166.859375 45.070312 C 167.042969 45.507812 167.179688 45.957031 167.269531 46.421875 C 167.363281 46.882812 167.410156 47.351562 167.410156 47.820312 Z M 167.410156 47.820312 " fill-opacity="1" fill-rule="nonzero"/><path fill="#000000" d="M 160.210938 55.726562 C 155.84375 55.726562 152.292969 52.179688 152.292969 47.820312 C 152.292969 43.460938 155.84375 39.914062 160.210938 39.914062 C 164.574219 39.914062 168.128906 43.460938 168.128906 47.820312 C 168.128906 52.179688 164.574219 55.726562 160.210938 55.726562 Z M 160.210938 41.351562 C 156.640625 41.351562 153.730469 44.253906 153.730469 47.820312 C 153.730469 51.386719 156.640625 54.289062 160.210938 54.289062 C 163.78125 54.289062 166.6875 51.386719 166.6875 47.820312 C 166.6875 44.253906 163.78125 41.351562 160.210938 41.351562 Z M 160.210938 41.351562 " fill-opacity="1" fill-rule="nonzero"/><path fill="#000000" d="M 190.945312 58.097656 C 190.945312 62.109375 187.6875 65.363281 183.664062 65.363281 C 179.644531 65.363281 176.386719 62.109375 176.386719 58.097656 C 176.386719 54.082031 179.644531 50.824219 183.664062 50.824219 C 187.6875 50.824219 190.945312 54.082031 190.945312 58.097656 Z M 190.945312 58.097656 " fill-opacity="1" fill-rule="nonzero"/><path fill="#000000" d="M 183.664062 66.082031 C 179.253906 66.082031 175.667969 62.5 175.667969 58.097656 C 175.667969 53.691406 179.253906 50.105469 183.664062 50.105469 C 188.074219 50.105469 191.664062 53.691406 191.664062 58.097656 C 191.664062 62.5 188.074219 66.082031 183.664062 66.082031 Z M 183.664062 51.542969 C 180.046875 51.542969 177.105469 54.484375 177.105469 58.097656 C 177.105469 61.707031 180.046875 64.644531 183.664062 64.644531 C 187.28125 64.644531 190.226562 61.707031 190.226562 58.097656 C 190.226562 54.484375 187.28125 51.542969 183.664062 51.542969 Z M 183.664062 51.542969 " fill-opacity="1" fill-rule="nonzero"/><path fill="#ff2273" d="M 182.394531 64.449219 C 182.320312 64.449219 182.246094 64.4375 182.175781 64.414062 C 181.964844 64.347656 181.796875 64.1875 181.71875 63.984375 L 180.570312 60.957031 L 178.023438 58.949219 C 177.851562 58.816406 177.753906 58.609375 177.75 58.390625 C 177.75 58.171875 177.847656 57.964844 178.019531 57.828125 L 180.546875 55.796875 L 181.671875 52.761719 C 181.746094 52.554688 181.914062 52.394531 182.121094 52.328125 C 182.328125 52.257812 182.558594 52.289062 182.742188 52.410156 L 185.453125 54.183594 L 188.695312 54.3125 C 188.914062 54.320312 189.117188 54.425781 189.246094 54.605469 C 189.375 54.78125 189.417969 55.007812 189.359375 55.21875 L 188.507812 58.34375 L 189.390625 61.460938 C 189.449219 61.671875 189.410156 61.898438 189.28125 62.074219 C 189.152344 62.253906 188.949219 62.363281 188.730469 62.371094 L 185.488281 62.527344 L 182.792969 64.328125 C 182.671875 64.40625 182.53125 64.449219 182.394531 64.449219 Z M 179.625 58.382812 L 181.617188 59.949219 C 181.722656 60.03125 181.800781 60.136719 181.847656 60.261719 L 182.746094 62.628906 L 184.855469 61.222656 C 184.964844 61.148438 185.089844 61.109375 185.222656 61.101562 L 187.757812 60.980469 L 187.066406 58.542969 C 187.03125 58.414062 187.03125 58.28125 187.066406 58.15625 L 187.730469 55.710938 L 185.195312 55.613281 C 185.066406 55.609375 184.941406 55.566406 184.832031 55.496094 L 182.707031 54.105469 L 181.828125 56.484375 C 181.785156 56.605469 181.707031 56.714844 181.605469 56.796875 Z M 179.625 58.382812 " fill-opacity="1" fill-rule="nonzero"/><path fill="#000000" d="M 178.160156 77.613281 C 178.160156 78.085938 178.113281 78.554688 178.019531 79.015625 C 177.929688 79.480469 177.792969 79.929688 177.609375 80.363281 C 177.429688 80.800781 177.207031 81.214844 176.945312 81.605469 C 176.683594 82 176.386719 82.363281 176.050781 82.695312 C 175.714844 83.03125 175.351562 83.328125 174.960938 83.589844 C 174.566406 83.851562 174.152344 84.074219 173.714844 84.253906 C 173.277344 84.433594 172.828125 84.570312 172.363281 84.664062 C 171.902344 84.753906 171.433594 84.800781 170.960938 84.800781 C 170.488281 84.800781 170.019531 84.753906 169.554688 84.664062 C 169.09375 84.570312 168.644531 84.433594 168.207031 84.253906 C 167.769531 84.074219 167.355469 83.851562 166.960938 83.589844 C 166.570312 83.328125 166.207031 83.03125 165.871094 82.695312 C 165.535156 82.363281 165.238281 82 164.976562 81.605469 C 164.714844 81.214844 164.492188 80.800781 164.3125 80.363281 C 164.128906 79.929688 163.992188 79.480469 163.902344 79.015625 C 163.808594 78.554688 163.761719 78.085938 163.761719 77.613281 C 163.761719 77.140625 163.808594 76.675781 163.902344 76.210938 C 163.992188 75.75 164.128906 75.300781 164.3125 74.863281 C 164.492188 74.425781 164.714844 74.011719 164.976562 73.621094 C 165.238281 73.226562 165.535156 72.863281 165.871094 72.53125 C 166.207031 72.199219 166.570312 71.898438 166.960938 71.636719 C 167.355469 71.375 167.769531 71.152344 168.207031 70.972656 C 168.644531 70.792969 169.09375 70.65625 169.554688 70.5625 C 170.019531 70.472656 170.488281 70.425781 170.960938 70.425781 C 171.433594 70.425781 171.902344 70.472656 172.363281 70.5625 C 172.828125 70.65625 173.277344 70.792969 173.714844 70.972656 C 174.152344 71.152344 174.566406 71.375 174.960938 71.636719 C 175.351562 71.898438 175.714844 72.199219 176.050781 72.53125 C 176.386719 72.863281 176.683594 73.226562 176.945312 73.621094 C 177.207031 74.011719 177.429688 74.425781 177.609375 74.863281 C 177.792969 75.300781 177.929688 75.75 178.019531 76.210938 C 178.113281 76.675781 178.160156 77.140625 178.160156 77.613281 Z M 178.160156 77.613281 " fill-opacity="1" fill-rule="nonzero"/><path fill="#000000" d="M 170.960938 85.519531 C 166.59375 85.519531 163.042969 81.972656 163.042969 77.613281 C 163.042969 73.253906 166.59375 69.707031 170.960938 69.707031 C 175.324219 69.707031 178.878906 73.253906 178.878906 77.613281 C 178.878906 81.972656 175.324219 85.519531 170.960938 85.519531 Z M 170.960938 71.144531 C 167.390625 71.144531 164.480469 74.046875 164.480469 77.613281 C 164.480469 81.179688 167.390625 84.082031 170.960938 84.082031 C 174.53125 84.082031 177.4375 81.179688 177.4375 77.613281 C 177.4375 74.046875 174.53125 71.144531 170.960938 71.144531 Z M 170.960938 71.144531 " fill-opacity="1" fill-rule="nonzero"/><path fill="#ff2273" d="M 150.6875 73.898438 C 150.539062 73.898438 150.390625 73.855469 150.261719 73.761719 L 144.511719 69.59375 C 144.261719 69.410156 144.15625 69.089844 144.25 68.796875 L 146.238281 62.472656 C 146.355469 62.09375 146.761719 61.882812 147.140625 62.003906 C 147.519531 62.121094 147.730469 62.527344 147.609375 62.90625 L 145.777344 68.734375 L 151.109375 72.597656 C 151.433594 72.832031 151.503906 73.28125 151.269531 73.605469 C 151.128906 73.796875 150.90625 73.898438 150.6875 73.898438 Z M 150.6875 73.898438 " fill-opacity="1" fill-rule="nonzero"/><path fill="#ff2273" d="M 150.6875 73.898438 C 150.625 73.898438 150.566406 73.890625 150.503906 73.875 C 150.121094 73.777344 149.890625 73.382812 149.992188 73 L 151.652344 66.632812 L 146.53125 63.289062 C 146.199219 63.074219 146.105469 62.628906 146.320312 62.296875 C 146.539062 61.960938 146.988281 61.871094 147.320312 62.085938 L 152.875 65.710938 C 153.132812 65.878906 153.253906 66.195312 153.175781 66.492188 L 151.382812 73.363281 C 151.296875 73.6875 151.007812 73.898438 150.6875 73.898438 Z M 150.6875 73.898438 " fill-opacity="1" fill-rule="nonzero"/><path fill="#000000" d="M 42.015625 104.457031 C 41.402344 105.914062 39.671875 107.523438 38.171875 108.03125 L 33.320312 109.667969 C 31.820312 110.175781 30.175781 109.367188 29.664062 107.867188 L 27.199219 100.675781 C 26.6875 99.179688 27.496094 97.539062 28.996094 97.03125 L 33.84375 95.394531 C 35.34375 94.886719 37.699219 95.113281 39.074219 95.894531 L 41.855469 97.472656 C 43.230469 98.253906 43.855469 100.085938 43.242188 101.542969 Z M 42.015625 104.457031 " fill-opacity="1" fill-rule="nonzero"/><path fill="#000000" d="M 54.292969 103.765625 C 55.753906 104.378906 57.363281 106.105469 57.871094 107.605469 L 59.511719 112.449219 C 60.019531 113.945312 59.207031 115.589844 57.710938 116.101562 L 50.503906 118.5625 C 49.007812 119.074219 47.367188 118.265625 46.859375 116.769531 L 45.21875 111.925781 C 44.710938 110.429688 44.9375 108.078125 45.71875 106.703125 L 47.296875 103.925781 C 48.078125 102.550781 49.914062 101.925781 51.375 102.539062 Z M 54.292969 103.765625 " fill-opacity="1" fill-rule="nonzero"/><path fill="#000000" d="M 109.269531 100.464844 C 109.507812 101.21875 109.089844 102.042969 108.339844 102.296875 L 99.660156 105.21875 C 98.910156 105.472656 98.101562 105.0625 97.863281 104.308594 L 96.71875 100.679688 C 96.480469 99.925781 96.898438 99.101562 97.648438 98.851562 L 106.328125 95.929688 C 107.078125 95.675781 107.886719 96.085938 108.125 96.839844 Z M 109.269531 100.464844 " fill-opacity="1" fill-rule="nonzero"/><path fill="#000000" d="M 118.199219 99.117188 C 117.546875 99.5625 116.816406 99.3125 116.578125 98.558594 L 115.433594 94.929688 C 115.195312 94.175781 115.648438 93.523438 116.4375 93.476562 L 125.960938 92.929688 C 126.75 92.882812 126.859375 93.210938 126.207031 93.660156 Z M 118.199219 99.117188 " fill-opacity="1" fill-rule="nonzero"/><path fill="#000000" d="M 53.601562 91.507812 C 54.214844 90.046875 55.945312 88.441406 57.445312 87.933594 L 62.296875 86.292969 C 63.796875 85.789062 65.441406 86.597656 65.953125 88.09375 L 68.417969 95.289062 C 68.929688 96.785156 68.121094 98.421875 66.621094 98.929688 L 61.773438 100.566406 C 60.273438 101.074219 57.921875 100.851562 56.542969 100.070312 L 53.761719 98.492188 C 52.386719 97.710938 51.761719 95.878906 52.375 94.421875 Z M 53.601562 91.507812 " fill-opacity="1" fill-rule="nonzero"/><path fill="#000000" d="M 41.324219 92.195312 C 39.863281 91.582031 38.253906 89.855469 37.746094 88.359375 L 36.105469 83.515625 C 35.597656 82.015625 36.40625 80.371094 37.90625 79.859375 L 45.113281 77.402344 C 46.613281 76.890625 48.253906 77.695312 48.761719 79.195312 L 50.402344 84.035156 C 50.90625 85.535156 50.683594 87.882812 49.902344 89.257812 L 48.320312 92.035156 C 47.539062 93.410156 45.703125 94.035156 44.246094 93.421875 Z M 41.324219 92.195312 " fill-opacity="1" fill-rule="nonzero"/><path fill="#00bfc3" d="M 100.125 108.3125 C 99.820312 108.3125 99.539062 108.121094 99.441406 107.816406 C 99.320312 107.4375 99.527344 107.03125 99.90625 106.910156 L 109.742188 103.761719 C 110.125 103.640625 110.527344 103.847656 110.648438 104.226562 C 110.769531 104.605469 110.5625 105.007812 110.183594 105.128906 L 100.347656 108.28125 C 100.273438 108.304688 100.199219 108.3125 100.125 108.3125 Z M 100.125 108.3125 " fill-opacity="1" fill-rule="nonzero"/><path fill="#00bfc3" d="M 118.839844 102.566406 C 118.535156 102.566406 118.25 102.367188 118.152344 102.054688 C 118.035156 101.675781 118.25 101.273438 118.628906 101.160156 L 128.230469 98.226562 C 128.613281 98.109375 129.011719 98.324219 129.128906 98.703125 C 129.242188 99.082031 129.03125 99.484375 128.652344 99.601562 L 119.050781 102.53125 C 118.980469 102.554688 118.910156 102.566406 118.839844 102.566406 Z M 118.839844 102.566406 " fill-opacity="1" fill-rule="nonzero"/><path fill="#00bfc3" d="M 161.894531 52.878906 C 161.804688 52.878906 161.714844 52.859375 161.625 52.824219 C 158.628906 51.605469 155.632812 50.242188 154.796875 48.148438 C 154.472656 47.34375 154.503906 46.507812 154.882812 45.671875 C 155.289062 44.773438 155.941406 44.4375 156.414062 44.316406 C 158.003906 43.90625 159.847656 45.238281 160.054688 45.390625 C 160.371094 45.628906 160.4375 46.078125 160.203125 46.394531 C 159.964844 46.710938 159.515625 46.78125 159.195312 46.542969 C 158.816406 46.261719 157.558594 45.5 156.773438 45.707031 C 156.613281 45.75 156.378906 45.851562 156.191406 46.261719 C 155.976562 46.746094 155.957031 47.175781 156.132812 47.617188 C 156.8125 49.316406 160.164062 50.679688 162.164062 51.492188 C 162.535156 51.640625 162.710938 52.0625 162.558594 52.429688 C 162.449219 52.707031 162.179688 52.878906 161.894531 52.878906 Z M 161.894531 52.878906 " fill-opacity="1" fill-rule="nonzero"/><path fill="#00bfc3" d="M 161.894531 52.878906 C 161.785156 52.878906 161.667969 52.851562 161.5625 52.796875 C 161.210938 52.609375 161.074219 52.175781 161.257812 51.824219 C 162.261719 49.910156 163.941406 46.707031 163.359375 44.972656 C 163.210938 44.523438 162.914062 44.207031 162.4375 43.980469 C 162.027344 43.785156 161.785156 43.859375 161.632812 43.929688 C 160.957031 44.257812 160.460938 45.554688 160.328125 46.128906 C 160.238281 46.515625 159.855469 46.761719 159.460938 46.667969 C 159.074219 46.578125 158.835938 46.191406 158.925781 45.804688 C 158.984375 45.554688 159.535156 43.347656 161.007812 42.636719 C 161.449219 42.421875 162.164062 42.257812 163.058594 42.683594 C 163.890625 43.078125 164.449219 43.695312 164.726562 44.515625 C 165.441406 46.65625 164.035156 49.628906 162.535156 52.492188 C 162.40625 52.738281 162.15625 52.878906 161.894531 52.878906 Z M 161.894531 52.878906 " fill-opacity="1" fill-rule="nonzero"/><path fill="#00bfc3" d="M 170.140625 82.105469 C 169.992188 82.105469 169.84375 82.058594 169.71875 81.96875 L 166.230469 79.445312 C 165.996094 79.277344 165.886719 78.984375 165.949219 78.707031 L 166.890625 74.507812 C 166.945312 74.273438 167.113281 74.078125 167.339844 73.992188 L 171.773438 72.320312 C 172 72.234375 172.25 72.265625 172.449219 72.410156 L 175.941406 74.929688 C 176.175781 75.097656 176.285156 75.390625 176.222656 75.671875 L 175.277344 79.867188 C 175.226562 80.105469 175.054688 80.296875 174.828125 80.382812 L 170.398438 82.058594 C 170.3125 82.089844 170.226562 82.105469 170.140625 82.105469 Z M 167.457031 78.558594 L 170.25 80.574219 L 173.957031 79.175781 L 174.714844 75.816406 L 171.917969 73.800781 L 168.210938 75.199219 Z M 167.457031 78.558594 " fill-opacity="1" fill-rule="nonzero"/><path fill="#ff2273" d="M 88.695312 77.890625 C 87.769531 77.890625 86.910156 77.289062 86.628906 76.359375 C 86.285156 75.21875 86.929688 74.015625 88.070312 73.667969 L 119.582031 64.160156 C 120.714844 63.816406 121.929688 64.460938 122.273438 65.601562 C 122.621094 66.742188 121.972656 67.945312 120.832031 68.289062 L 89.320312 77.796875 C 89.113281 77.859375 88.902344 77.890625 88.695312 77.890625 Z M 88.695312 77.890625 " fill-opacity="1" fill-rule="nonzero"/><path fill="#00bfc3" d="M 95.027344 83.601562 C 94.101562 83.601562 93.246094 83.003906 92.960938 82.074219 C 92.617188 80.933594 93.257812 79.726562 94.402344 79.382812 L 116.082031 72.808594 C 117.210938 72.464844 118.429688 73.105469 118.773438 74.246094 C 119.121094 75.386719 118.476562 76.589844 117.335938 76.9375 L 95.65625 83.507812 C 95.449219 83.574219 95.234375 83.601562 95.027344 83.601562 Z M 95.027344 83.601562 " fill-opacity="1" fill-rule="nonzero"/><path fill="#ffffff" d="M 35.550781 197.234375 C 32.71875 197.199219 29.257812 195.007812 27.625 193.734375 C 24.925781 191.640625 22.945312 188.226562 22.015625 184.984375 C 21.277344 182.410156 21.507812 174.808594 26.359375 176.449219 C 28.980469 177.332031 29.476562 182.015625 30.777344 184.101562 C 32.582031 186.996094 35.285156 189.238281 37.976562 191.265625 C 39.449219 192.371094 39.714844 194.722656 38.46875 196.078125 C 37.691406 196.925781 36.671875 197.246094 35.550781 197.234375 Z M 35.550781 197.234375 " fill-opacity="1" fill-rule="nonzero"/><path fill="#000000" d="M 35.609375 197.433594 L 35.542969 197.433594 C 31.988281 197.433594 27.953125 194.644531 27.179688 194.042969 C 24.566406 192.015625 22.378906 188.734375 21.324219 185.054688 C 20.839844 183.363281 20.632812 179.125 22.355469 176.835938 C 23.347656 175.527344 24.84375 175.148438 26.59375 175.734375 C 28.675781 176.4375 29.550781 178.949219 30.320312 181.152344 C 30.667969 182.144531 31 183.089844 31.386719 183.714844 C 33.125 186.5 35.789062 188.710938 38.410156 190.6875 C 39.289062 191.347656 39.855469 192.398438 39.960938 193.558594 C 40.066406 194.6875 39.714844 195.527344 39 196.304688 C 38.15625 197.226562 37.015625 197.433594 35.609375 197.433594 Z M 25.089844 176.9375 C 24.445312 176.9375 23.929688 177.207031 23.507812 177.769531 C 22.285156 179.390625 22.214844 183.066406 22.710938 184.789062 C 23.683594 188.1875 25.683594 191.332031 28.066406 193.179688 C 30.027344 194.703125 33.425781 196.539062 35.824219 196.539062 L 36.132812 196.539062 C 36.132812 196.539062 37.632812 196.226562 38.199219 195.605469 C 38.644531 195.125 38.726562 194.425781 38.660156 193.695312 C 38.589844 192.9375 38.167969 192.261719 37.609375 191.839844 C 34.878906 189.785156 32.058594 187.46875 30.199219 184.484375 C 29.726562 183.722656 29.355469 182.714844 28.980469 181.640625 C 28.316406 179.75 27.554688 177.609375 26.140625 177.128906 C 25.761719 177.003906 25.402344 176.9375 25.089844 176.9375 Z M 25.089844 176.9375 " fill-opacity="1" fill-rule="nonzero"/><path fill="#ffffff" d="M 215.511719 118.75 C 217.273438 120.980469 217.746094 125.046875 217.78125 127.121094 C 217.851562 130.53125 216.441406 134.21875 214.496094 136.976562 C 212.957031 139.167969 206.875 143.757812 205.09375 138.949219 C 204.132812 136.355469 207.472656 133.027344 208.28125 130.707031 C 209.398438 127.484375 209.441406 123.972656 209.324219 120.605469 C 209.257812 118.765625 210.925781 117.082031 212.773438 117.203125 C 213.917969 117.273438 214.8125 117.871094 215.511719 118.75 Z M 215.511719 118.75 " fill-opacity="1" fill-rule="nonzero"/><path fill="#000000" d="M 207.835938 141.78125 C 206.714844 141.78125 205.210938 141.332031 204.417969 139.195312 C 203.65625 137.132812 205.050781 134.886719 206.28125 132.902344 C 206.835938 132.011719 207.359375 131.164062 207.601562 130.472656 C 208.675781 127.367188 208.71875 123.90625 208.601562 120.628906 C 208.566406 119.582031 208.988281 118.519531 209.761719 117.71875 C 210.582031 116.871094 211.710938 116.40625 212.816406 116.484375 C 214.082031 116.5625 215.183594 117.175781 216.078125 118.300781 C 218.289062 121.105469 218.488281 126.128906 218.503906 127.109375 C 218.570312 130.414062 217.292969 134.257812 215.085938 137.390625 C 214.042969 138.875 210.738281 141.78125 207.835938 141.78125 Z M 212.707031 118.550781 C 211.933594 118.550781 211.289062 118.527344 210.796875 119.03125 C 210.292969 119.554688 210.019531 120.074219 210.042969 120.738281 C 210.164062 124.15625 210.113281 127.695312 208.960938 131.023438 C 208.664062 131.867188 208.101562 132.738281 207.5 133.699219 C 206.445312 135.402344 205.25 137.3125 205.769531 138.714844 C 206.183594 139.839844 206.84375 140.351562 207.835938 140.351562 C 209.882812 140.351562 212.847656 138.070312 213.90625 136.566406 C 215.945312 133.675781 217.125 130.148438 217.0625 127.136719 C 217.015625 124.652344 216.4375 121.398438 214.945312 119.507812 C 214.304688 118.707031 213.578125 118.546875 212.722656 118.546875 C 212.71875 118.550781 212.714844 118.550781 212.707031 118.550781 Z M 212.707031 118.550781 " fill-opacity="1" fill-rule="nonzero"/><g fill="#000000" fill-opacity="1"><g transform="translate(60.061307, 94.06948)"><g><path d="M 1.3125 0.046875 C 1.125 0.046875 0.976562 -0.00390625 0.875 -0.109375 C 0.769531 -0.210938 0.71875 -0.347656 0.71875 -0.515625 C 0.71875 -0.691406 0.769531 -0.832031 0.875 -0.9375 C 0.976562 -1.050781 1.125 -1.109375 1.3125 -1.109375 C 1.5 -1.109375 1.644531 -1.054688 1.75 -0.953125 C 1.863281 -0.847656 1.921875 -0.707031 1.921875 -0.53125 C 1.921875 -0.351562 1.863281 -0.210938 1.75 -0.109375 C 1.644531 -0.00390625 1.5 0.046875 1.3125 0.046875 Z M 1.3125 0.046875 "/></g></g></g></svg>