<svg xmlns="http://www.w3.org/2000/svg" xmlns:xlink="http://www.w3.org/1999/xlink" width="300" zoomAndPan="magnify" viewBox="0 0 224.87999 225" height="300" preserveAspectRatio="xMidYMid meet" version="1.0"><defs><g/><clipPath id="9fa79f4e14"><path d="M 33 8.914062 L 214 8.914062 L 214 201 L 33 201 Z M 33 8.914062 " clip-rule="nonzero"/></clipPath><clipPath id="a694f60b72"><path d="M 169 103 L 224.761719 103 L 224.761719 155 L 169 155 Z M 169 103 " clip-rule="nonzero"/></clipPath><clipPath id="547730a714"><path d="M 0 103 L 87 103 L 87 215.804688 L 0 215.804688 Z M 0 103 " clip-rule="nonzero"/></clipPath></defs><g clip-path="url(#9fa79f4e14)"><path fill="#f4bc21" d="M 183.582031 95.039062 L 213.3125 95.039062 L 213.3125 78.757812 C 213.3125 69.554688 205.761719 62.242188 196.792969 62.242188 L 196.792969 52.804688 C 196.792969 41.003906 187.121094 31.332031 175.324219 31.332031 L 150.78125 31.332031 L 134.738281 8.914062 L 103.355469 31.332031 L 55.457031 31.332031 C 43.894531 31.332031 34.457031 40.296875 33.984375 51.621094 C 33.984375 52.332031 33.984375 53.039062 33.984375 53.039062 L 33.984375 100.9375 C 35.398438 99.285156 36.816406 97.632812 38.703125 96.21875 C 40.828125 94.332031 43.421875 93.386719 46.253906 93.386719 C 49.558594 93.386719 52.625 94.804688 54.75 97.398438 C 56.871094 99.757812 57.816406 103.0625 57.34375 106.363281 C 56.871094 109.195312 57.109375 112.972656 57.816406 116.511719 C 59.230469 115.804688 61.121094 115.332031 62.769531 115.332031 C 65.839844 115.332031 68.667969 116.511719 70.792969 118.871094 C 79.289062 127.601562 83.535156 137.746094 83.300781 148.835938 C 86.367188 149.546875 88.960938 151.195312 90.613281 154.027344 C 91.558594 155.679688 92.5 157.332031 93.210938 158.984375 C 99.109375 172.195312 98.636719 187.296875 91.558594 200.039062 L 193.964844 200.039062 C 204.582031 200.039062 213.546875 191.308594 213.546875 180.457031 L 213.546875 162.523438 L 183.582031 162.523438 C 171.074219 162.523438 160.929688 152.375 160.929688 139.871094 L 160.929688 117.691406 C 160.929688 105.183594 171.074219 95.039062 183.582031 95.039062 Z M 60.410156 62.242188 L 55.457031 62.242188 C 50.265625 62.242188 46.019531 57.992188 46.019531 52.804688 C 46.019531 47.613281 50.265625 43.363281 55.457031 43.363281 L 86.601562 43.363281 Z M 80.941406 62.242188 L 131.90625 25.667969 L 158.097656 62.242188 Z M 159.277344 43.363281 L 175.324219 43.363281 C 180.515625 43.363281 184.761719 47.613281 184.761719 52.804688 L 184.761719 62.242188 L 172.964844 62.242188 Z M 159.277344 43.363281 " fill-opacity="1" fill-rule="nonzero"/></g><g clip-path="url(#a694f60b72)"><path fill="#f4bc21" d="M 219.917969 103.535156 L 183.582031 103.535156 C 175.792969 103.535156 169.421875 109.90625 169.421875 117.691406 L 169.421875 139.871094 C 169.421875 147.65625 175.792969 154.027344 183.582031 154.027344 L 219.917969 154.027344 C 222.515625 154.027344 224.875 151.90625 224.875 149.074219 L 224.875 108.488281 C 224.875 105.65625 222.75 103.535156 219.917969 103.535156 Z M 191.367188 139.164062 C 185.703125 139.164062 180.984375 134.445312 180.984375 128.78125 C 180.984375 123.117188 185.703125 118.398438 191.367188 118.398438 C 197.03125 118.398438 201.75 123.117188 201.75 128.78125 C 201.515625 134.445312 197.03125 139.164062 191.367188 139.164062 Z M 191.367188 139.164062 " fill-opacity="1" fill-rule="nonzero"/></g><g clip-path="url(#547730a714)"><path fill="#f4bc21" d="M 81.648438 159.21875 C 81.175781 158.277344 79.761719 158.746094 79.761719 159.691406 C 79.050781 169.128906 74.804688 173.613281 71.972656 176.207031 C 68.199219 179.511719 65.601562 175.972656 70.792969 160.871094 C 76.457031 143.882812 69.851562 132.792969 63.242188 125.949219 C 62.535156 125.242188 61.355469 125.949219 61.589844 126.894531 C 63.949219 140.816406 54.75 147.894531 54.75 147.894531 C 54.75 147.894531 56.636719 140.578125 50.5 128.074219 C 47.433594 121.464844 46.019531 112.265625 46.960938 105.183594 C 47.199219 104.242188 46.019531 103.535156 45.308594 104.242188 C 29.5 118.164062 31.152344 142.464844 31.152344 142.464844 C 26.90625 139.164062 22.421875 133.5 18.410156 125.714844 C 17.9375 125.003906 16.996094 124.769531 16.523438 125.714844 C 11.804688 137.039062 16.050781 155.445312 17.9375 163.230469 C 20.0625 171.488281 19.589844 174.558594 14.871094 171.488281 C 9.679688 168.1875 6.378906 161.578125 4.960938 157.804688 C 4.726562 156.859375 3.308594 157.097656 3.074219 157.804688 C 0.242188 166.296875 0.0078125 175.027344 1.1875 183.050781 C 4.015625 202.164062 20.535156 216.085938 39.648438 216.085938 L 47.433594 216.085938 C 75.039062 216.085938 95.097656 188.007812 83.769531 162.996094 C 83.0625 161.816406 82.355469 160.398438 81.648438 159.21875 Z M 81.648438 159.21875 " fill-opacity="1" fill-rule="nonzero"/></g><g fill="#f4bc21" fill-opacity="1"><g transform="translate(111.058253, 116.224533)"><g><path d="M 1.3125 0.0625 C 1.125 0.0625 0.976562 0.0078125 0.875 -0.09375 C 0.769531 -0.195312 0.722656 -0.332031 0.734375 -0.5 C 0.734375 -0.675781 0.785156 -0.816406 0.890625 -0.921875 C 0.992188 -1.035156 1.140625 -1.09375 1.328125 -1.09375 C 1.515625 -1.082031 1.660156 -1.023438 1.765625 -0.921875 C 1.878906 -0.816406 1.9375 -0.675781 1.9375 -0.5 C 1.925781 -0.320312 1.863281 -0.179688 1.75 -0.078125 C 1.644531 0.0234375 1.5 0.0703125 1.3125 0.0625 Z M 1.3125 0.0625 "/></g></g></g></svg>